# xmcd
#
# Track frame offsets: 
#        150
#        20927
#        40780
#        65757
#        87602
#        111882
#        139282
#        163625
#        187150
#        211027
#
# Disc length: 3090 seconds
#
# Revision: 3
# Processed by: cddbd v1.5.2PL0 Copyright (c) Steve Scherf et al.
# Submitted via: ExactAudioCopyFreeDBPlugin 1.0
#
DISCID=970c100a
DTITLE=Little Axe - Slow Fuse
DYEAR=1996
DGENRE=Electronic - Blues 
TTITLE0=On The Beat Sound
TTITLE1=Storm is Rising
TTITLE2=Too Late
TTITLE3=Going Down Slow
TTITLE4=Lift Off
TTITLE5=Falling Down
TTITLE6=Must Have Been The Devil
TTITLE7=Judgement
TTITLE8=Fallen Grace
TTITLE9=On The Beat Sound-instrumental
EXTD=
EXTT0=
EXTT1=
EXTT2=
EXTT3=
EXTT4=
EXTT5=
EXTT6=
EXTT7=
EXTT8=
EXTT9=
PLAYORDER=
